<mxfile host="Electron" agent="Mozilla/5.0 (Windows NT 10.0; Win64; x64) AppleWebKit/537.36 (KHTML, like Gecko) draw.io/24.7.17 Chrome/128.0.6613.36 Electron/32.0.1 Safari/537.36" version="24.7.17">
  <diagram id="iSdH8Bf3Pxa846-qju2B" name="Шаблон">
    <mxGraphModel dx="2440" dy="1407" grid="1" gridSize="10" guides="1" tooltips="1" connect="1" arrows="1" fold="1" page="1" pageScale="1" pageWidth="827" pageHeight="1169" math="0" shadow="0">
      <root>
        <mxCell id="0" />
        <mxCell id="1" parent="0" />
        <mxCell id="5DFN9uElky3kn-lGwo1o-1" value="" style="shape=table;startSize=0;container=1;collapsible=0;childLayout=tableLayout;fontFamily=Comic Sans MS;" parent="1" vertex="1">
          <mxGeometry x="5" y="28" width="816" height="1113.0000000000007" as="geometry" />
        </mxCell>
        <mxCell id="5DFN9uElky3kn-lGwo1o-6" value="" style="shape=tableRow;horizontal=0;startSize=0;swimlaneHead=0;swimlaneBody=0;strokeColor=inherit;top=0;left=0;bottom=0;right=0;collapsible=0;dropTarget=0;fillColor=none;points=[[0,0.5],[1,0.5]];portConstraint=eastwest;fontFamily=Comic Sans MS;" parent="5DFN9uElky3kn-lGwo1o-1" vertex="1">
          <mxGeometry width="816" height="40" as="geometry" />
        </mxCell>
        <mxCell id="5DFN9uElky3kn-lGwo1o-7" value="&lt;b&gt;Заголовок&lt;/b&gt;" style="shape=partialRectangle;html=1;whiteSpace=wrap;connectable=0;strokeColor=inherit;overflow=hidden;fillColor=none;top=0;left=0;bottom=0;right=0;pointerEvents=1;fontFamily=Comic Sans MS;align=right;spacingRight=21;" parent="5DFN9uElky3kn-lGwo1o-6" vertex="1">
          <mxGeometry width="160" height="40" as="geometry">
            <mxRectangle width="160" height="40" as="alternateBounds" />
          </mxGeometry>
        </mxCell>
        <mxCell id="5DFN9uElky3kn-lGwo1o-9" value="Управление содержимым корзины" style="shape=partialRectangle;html=1;whiteSpace=wrap;connectable=0;strokeColor=inherit;overflow=hidden;fillColor=none;top=0;left=0;bottom=0;right=0;pointerEvents=1;spacingLeft=21;spacingRight=7;fontFamily=Comic Sans MS;align=left;" parent="5DFN9uElky3kn-lGwo1o-6" vertex="1">
          <mxGeometry x="160" width="656" height="40" as="geometry">
            <mxRectangle width="656" height="40" as="alternateBounds" />
          </mxGeometry>
        </mxCell>
        <mxCell id="5DFN9uElky3kn-lGwo1o-10" value="" style="shape=tableRow;horizontal=0;startSize=0;swimlaneHead=0;swimlaneBody=0;strokeColor=inherit;top=0;left=0;bottom=0;right=0;collapsible=0;dropTarget=0;fillColor=none;points=[[0,0.5],[1,0.5]];portConstraint=eastwest;fontFamily=Comic Sans MS;" parent="5DFN9uElky3kn-lGwo1o-1" vertex="1">
          <mxGeometry y="40" width="816" height="40" as="geometry" />
        </mxCell>
        <mxCell id="5DFN9uElky3kn-lGwo1o-11" value="&lt;b&gt;Акторы&lt;/b&gt;" style="shape=partialRectangle;html=1;whiteSpace=wrap;connectable=0;strokeColor=inherit;overflow=hidden;fillColor=none;top=0;left=0;bottom=0;right=0;pointerEvents=1;fontFamily=Comic Sans MS;align=right;spacingRight=21;" parent="5DFN9uElky3kn-lGwo1o-10" vertex="1">
          <mxGeometry width="160" height="40" as="geometry">
            <mxRectangle width="160" height="40" as="alternateBounds" />
          </mxGeometry>
        </mxCell>
        <mxCell id="5DFN9uElky3kn-lGwo1o-13" value="Пользователь приложения [МегаМаркет]" style="shape=partialRectangle;html=1;whiteSpace=wrap;connectable=0;strokeColor=inherit;overflow=hidden;fillColor=none;top=0;left=0;bottom=0;right=0;pointerEvents=1;spacingLeft=21;spacingRight=7;fontFamily=Comic Sans MS;align=left;" parent="5DFN9uElky3kn-lGwo1o-10" vertex="1">
          <mxGeometry x="160" width="656" height="40" as="geometry">
            <mxRectangle width="656" height="40" as="alternateBounds" />
          </mxGeometry>
        </mxCell>
        <mxCell id="5DFN9uElky3kn-lGwo1o-14" value="" style="shape=tableRow;horizontal=0;startSize=0;swimlaneHead=0;swimlaneBody=0;strokeColor=inherit;top=0;left=0;bottom=0;right=0;collapsible=0;dropTarget=0;fillColor=none;points=[[0,0.5],[1,0.5]];portConstraint=eastwest;fontFamily=Comic Sans MS;" parent="5DFN9uElky3kn-lGwo1o-1" vertex="1">
          <mxGeometry y="80" width="816" height="40" as="geometry" />
        </mxCell>
        <mxCell id="5DFN9uElky3kn-lGwo1o-15" value="&lt;b&gt;Предусловие&lt;/b&gt;" style="shape=partialRectangle;html=1;whiteSpace=wrap;connectable=0;strokeColor=inherit;overflow=hidden;fillColor=none;top=0;left=0;bottom=0;right=0;pointerEvents=1;fontFamily=Comic Sans MS;align=right;spacingRight=21;" parent="5DFN9uElky3kn-lGwo1o-14" vertex="1">
          <mxGeometry width="160" height="40" as="geometry">
            <mxRectangle width="160" height="40" as="alternateBounds" />
          </mxGeometry>
        </mxCell>
        <mxCell id="5DFN9uElky3kn-lGwo1o-17" value="Пользователь зарегистрирован и авторизован в приложении" style="shape=partialRectangle;html=1;whiteSpace=wrap;connectable=0;strokeColor=inherit;overflow=hidden;fillColor=none;top=0;left=0;bottom=0;right=0;pointerEvents=1;spacingLeft=21;spacingRight=7;fontFamily=Comic Sans MS;align=left;" parent="5DFN9uElky3kn-lGwo1o-14" vertex="1">
          <mxGeometry x="160" width="656" height="40" as="geometry">
            <mxRectangle width="656" height="40" as="alternateBounds" />
          </mxGeometry>
        </mxCell>
        <mxCell id="5DFN9uElky3kn-lGwo1o-18" value="" style="shape=tableRow;horizontal=0;startSize=0;swimlaneHead=0;swimlaneBody=0;strokeColor=inherit;top=0;left=0;bottom=0;right=0;collapsible=0;dropTarget=0;fillColor=none;points=[[0,0.5],[1,0.5]];portConstraint=eastwest;fontFamily=Comic Sans MS;" parent="5DFN9uElky3kn-lGwo1o-1" vertex="1">
          <mxGeometry y="120" width="816" height="40" as="geometry" />
        </mxCell>
        <mxCell id="5DFN9uElky3kn-lGwo1o-19" value="&lt;b&gt;Ограничения&lt;/b&gt;" style="shape=partialRectangle;html=1;whiteSpace=wrap;connectable=0;strokeColor=inherit;overflow=hidden;fillColor=none;top=0;left=0;bottom=0;right=0;pointerEvents=1;fontFamily=Comic Sans MS;align=right;spacingRight=21;" parent="5DFN9uElky3kn-lGwo1o-18" vertex="1">
          <mxGeometry width="160" height="40" as="geometry">
            <mxRectangle width="160" height="40" as="alternateBounds" />
          </mxGeometry>
        </mxCell>
        <mxCell id="5DFN9uElky3kn-lGwo1o-21" value="Управление содержимым корзины возможно только при наличии выхода в интернет" style="shape=partialRectangle;html=1;whiteSpace=wrap;connectable=0;strokeColor=inherit;overflow=hidden;fillColor=none;top=0;left=0;bottom=0;right=0;pointerEvents=1;spacingLeft=21;spacingRight=7;fontFamily=Comic Sans MS;align=left;" parent="5DFN9uElky3kn-lGwo1o-18" vertex="1">
          <mxGeometry x="160" width="656" height="40" as="geometry">
            <mxRectangle width="656" height="40" as="alternateBounds" />
          </mxGeometry>
        </mxCell>
        <mxCell id="5DFN9uElky3kn-lGwo1o-22" value="" style="shape=tableRow;horizontal=0;startSize=0;swimlaneHead=0;swimlaneBody=0;strokeColor=inherit;top=0;left=0;bottom=0;right=0;collapsible=0;dropTarget=0;fillColor=none;points=[[0,0.5],[1,0.5]];portConstraint=eastwest;fontFamily=Comic Sans MS;" parent="5DFN9uElky3kn-lGwo1o-1" vertex="1">
          <mxGeometry y="160" width="816" height="40" as="geometry" />
        </mxCell>
        <mxCell id="5DFN9uElky3kn-lGwo1o-23" value="&lt;b&gt;Триггер&lt;/b&gt;" style="shape=partialRectangle;html=1;whiteSpace=wrap;connectable=0;strokeColor=inherit;overflow=hidden;fillColor=none;top=0;left=0;bottom=0;right=0;pointerEvents=1;fontFamily=Comic Sans MS;align=right;spacingRight=21;" parent="5DFN9uElky3kn-lGwo1o-22" vertex="1">
          <mxGeometry width="160" height="40" as="geometry">
            <mxRectangle width="160" height="40" as="alternateBounds" />
          </mxGeometry>
        </mxCell>
        <mxCell id="5DFN9uElky3kn-lGwo1o-25" value="Пользователь&amp;nbsp;запускает приложение&amp;nbsp;[МегаМаркет]" style="shape=partialRectangle;html=1;whiteSpace=wrap;connectable=0;strokeColor=inherit;overflow=hidden;fillColor=none;top=0;left=0;bottom=0;right=0;pointerEvents=1;spacingLeft=21;spacingRight=7;fontFamily=Comic Sans MS;align=left;" parent="5DFN9uElky3kn-lGwo1o-22" vertex="1">
          <mxGeometry x="160" width="656" height="40" as="geometry">
            <mxRectangle width="656" height="40" as="alternateBounds" />
          </mxGeometry>
        </mxCell>
        <mxCell id="5DFN9uElky3kn-lGwo1o-26" value="" style="shape=tableRow;horizontal=0;startSize=0;swimlaneHead=0;swimlaneBody=0;strokeColor=inherit;top=0;left=0;bottom=0;right=0;collapsible=0;dropTarget=0;fillColor=none;points=[[0,0.5],[1,0.5]];portConstraint=eastwest;fontFamily=Comic Sans MS;" parent="5DFN9uElky3kn-lGwo1o-1" vertex="1">
          <mxGeometry y="200" width="816" height="373" as="geometry" />
        </mxCell>
        <mxCell id="5DFN9uElky3kn-lGwo1o-27" value="&lt;b&gt;Основной сценарий&lt;/b&gt;" style="shape=partialRectangle;html=1;whiteSpace=wrap;connectable=0;strokeColor=inherit;overflow=hidden;fillColor=none;top=0;left=0;bottom=0;right=0;pointerEvents=1;fontFamily=Comic Sans MS;align=right;spacingRight=21;" parent="5DFN9uElky3kn-lGwo1o-26" vertex="1">
          <mxGeometry width="160" height="373" as="geometry">
            <mxRectangle width="160" height="373" as="alternateBounds" />
          </mxGeometry>
        </mxCell>
        <mxCell id="5DFN9uElky3kn-lGwo1o-29" value="&lt;ol style=&quot;padding-left: 21px; margin-left: 0px; margin-top: 0px;&quot;&gt;&lt;li&gt;&lt;span style=&quot;background-color: initial;&quot;&gt;Система отображает домашнюю страницу с предлагаемыми Товарами&lt;/span&gt;&lt;b style=&quot;background-color: initial;&quot;&gt;&lt;i&gt; &lt;font color=&quot;#8654cc&quot;&gt;(&lt;font style=&quot;text-decoration-line: underline;&quot;&gt;экран 1.a&lt;/font&gt;);&lt;/font&gt;&lt;/i&gt;&lt;/b&gt;&lt;/li&gt;&lt;li&gt;&lt;span style=&quot;background-color: initial;&quot;&gt;Пользователь нажимает кнопку &quot;Купить&quot; возле интересующего Товара;&lt;/span&gt;&lt;/li&gt;&lt;li&gt;&lt;span style=&quot;background-color: initial;&quot;&gt;Система&amp;nbsp;проверяет наличие выбранного Товара и после успешной проверки&amp;nbsp;отображает&amp;nbsp;количество Товара,&amp;nbsp;добавленного в Корзину&lt;/span&gt;&lt;b style=&quot;background-color: initial;&quot;&gt;&lt;i&gt;&amp;nbsp;&lt;font color=&quot;#8654cc&quot;&gt;(&lt;font style=&quot;text-decoration-line: underline;&quot;&gt;экран 1.b&lt;/font&gt;);&lt;/font&gt;&lt;/i&gt;&lt;/b&gt;&lt;/li&gt;&lt;li&gt;&lt;span style=&quot;background-color: initial;&quot;&gt;Пользователь&amp;nbsp;через кнопку &quot;Купить&quot;&amp;nbsp;добавляет другие Товары,&amp;nbsp;&lt;/span&gt;либо&amp;nbsp;&lt;span style=&quot;background-color: initial;&quot;&gt;с помощью кнопок &lt;br&gt;&quot;+&quot; (увеличить) и &quot;-&quot; (уменьшить) возле Товара корректирует&lt;/span&gt;&lt;span style=&quot;background-color: initial;&quot;&gt;&amp;nbsp;количество уже добавленного;&lt;/span&gt;&lt;/li&gt;&lt;li&gt;&lt;span style=&quot;background-color: initial;&quot;&gt;Система проверяет наличие выбранных Товаров и после успешной проверки&amp;nbsp;обновляет количество Товара, находящегося в Корзине&lt;/span&gt;&lt;b style=&quot;background-color: initial;&quot;&gt;&lt;i&gt;&amp;nbsp;&lt;font color=&quot;#8654cc&quot;&gt;(&lt;font style=&quot;text-decoration-line: underline;&quot;&gt;экран 1.c&lt;/font&gt;);&lt;/font&gt;&lt;/i&gt;&lt;/b&gt;&lt;/li&gt;&lt;li&gt;&lt;span style=&quot;background-color: initial;&quot;&gt;Пользователь нажимает кнопку &quot;Корзина&quot;;&lt;/span&gt;&lt;/li&gt;&lt;li&gt;&lt;span style=&quot;background-color: initial;&quot;&gt;Система&amp;nbsp;проверяет наличие выбранных Товаров и после успешной проверки&amp;nbsp;отображает окно Корзины со списком&amp;nbsp;находящихся в ней Товаров, где указывается количество и цена за единицу, &lt;br&gt;а также итоговая сумма заказа в нижней части экрана и активная кнопка &quot;Оформить заказ&quot;&lt;/span&gt;&lt;b style=&quot;background-color: initial;&quot;&gt;&lt;i&gt;&amp;nbsp;&lt;font color=&quot;#8654cc&quot;&gt;(&lt;font style=&quot;text-decoration-line: underline;&quot;&gt;экран 2.a&lt;/font&gt;);&lt;/font&gt;&lt;/i&gt;&lt;/b&gt;&lt;/li&gt;&lt;li&gt;&lt;span style=&quot;background-color: initial;&quot;&gt;Пользователь&amp;nbsp;&lt;span style=&quot;background-color: initial;&quot;&gt;с помощью кнопок &quot;+&quot; (увеличить) и &quot;-&quot; (уменьшить) возле Товара корректирует&amp;nbsp;&lt;/span&gt;&lt;span style=&quot;background-color: initial;&quot;&gt;количество,&amp;nbsp;а также&lt;/span&gt;&amp;nbsp;через кнопку &quot;Урна&quot; рядом с Товаром&amp;nbsp;удаляет ненужный Товар из Корзины;&lt;/span&gt;&lt;/li&gt;&lt;li&gt;&lt;span style=&quot;background-color: initial;&quot;&gt;Система&amp;nbsp;проверяет наличие выбранных Товаров и после успешной проверки&amp;nbsp;обновляет список и количество Товаров, находящихся в Корзине, а также&amp;nbsp;&lt;/span&gt;&lt;b style=&quot;background-color: initial;&quot;&gt;&lt;i&gt;&lt;span style=&quot;font-style: normal; font-weight: 400;&quot;&gt;удаляет Товар из Корзины, если его количество уменьшилось до 0&lt;/span&gt;&amp;nbsp;&lt;font color=&quot;#8654cc&quot;&gt;(&lt;font style=&quot;text-decoration-line: underline;&quot;&gt;экран 2.b&lt;/font&gt;);&lt;/font&gt;&lt;/i&gt;&lt;/b&gt;&lt;/li&gt;&lt;li&gt;&lt;span style=&quot;background-color: initial;&quot;&gt;Проверив список Товаров и итоговую сумму Пользователь нажимает кнопку &quot;Оформить заказ&quot;;&lt;/span&gt;&lt;/li&gt;&lt;li&gt;&lt;span style=&quot;background-color: initial;&quot;&gt;Система проверяет наличие выбранных Товаров и после успешной проверки открывает окно выбора способов доставки и оплаты (не рассматривается в контексте текущей US);&lt;/span&gt;&lt;/li&gt;&lt;/ol&gt;&lt;b&gt;&lt;span style=&quot;background-color: initial;&quot;&gt;&lt;font size=&quot;1&quot; color=&quot;#8654cc&quot;&gt;&lt;u style=&quot;font-size: 14px;&quot;&gt;Критерий успеха&lt;/u&gt;&lt;span style=&quot;font-size: 14px;&quot;&gt;:&lt;/span&gt;&lt;/font&gt;&lt;/span&gt;&lt;span style=&quot;background-color: initial;&quot;&gt;&amp;nbsp;&lt;/span&gt;Пользователь добавляет и удаляет Товары в Корзине, а также корректирует их количество.&lt;/b&gt;" style="shape=partialRectangle;html=1;whiteSpace=wrap;connectable=0;strokeColor=inherit;overflow=hidden;fillColor=none;top=0;left=0;bottom=0;right=0;pointerEvents=1;spacingLeft=21;spacingRight=7;fontFamily=Comic Sans MS;align=left;" parent="5DFN9uElky3kn-lGwo1o-26" vertex="1">
          <mxGeometry x="160" width="656" height="373" as="geometry">
            <mxRectangle width="656" height="373" as="alternateBounds" />
          </mxGeometry>
        </mxCell>
        <mxCell id="5DFN9uElky3kn-lGwo1o-30" value="" style="shape=tableRow;horizontal=0;startSize=0;swimlaneHead=0;swimlaneBody=0;strokeColor=inherit;top=0;left=0;bottom=0;right=0;collapsible=0;dropTarget=0;fillColor=none;points=[[0,0.5],[1,0.5]];portConstraint=eastwest;fontFamily=Comic Sans MS;" parent="5DFN9uElky3kn-lGwo1o-1" vertex="1">
          <mxGeometry y="573" width="816" height="160" as="geometry" />
        </mxCell>
        <mxCell id="5DFN9uElky3kn-lGwo1o-31" value="&lt;b&gt;Альтернативный сценарий&lt;/b&gt;" style="shape=partialRectangle;html=1;whiteSpace=wrap;connectable=0;strokeColor=inherit;overflow=hidden;fillColor=none;top=0;left=0;bottom=0;right=0;pointerEvents=1;fontFamily=Comic Sans MS;align=right;spacingRight=21;" parent="5DFN9uElky3kn-lGwo1o-30" vertex="1">
          <mxGeometry width="160" height="160" as="geometry">
            <mxRectangle width="160" height="160" as="alternateBounds" />
          </mxGeometry>
        </mxCell>
        <mxCell id="5DFN9uElky3kn-lGwo1o-33" value="&lt;span style=&quot;background-color: initial;&quot;&gt;&lt;b&gt;&lt;i&gt;&lt;u&gt;10a&lt;/u&gt;&lt;/i&gt;&lt;/b&gt;. Пользователь&lt;/span&gt;&amp;nbsp;&lt;span style=&quot;background-color: initial;&quot;&gt;с помощью кнопок&lt;/span&gt;&lt;span style=&quot;background-color: initial;&quot;&gt;&amp;nbsp;&quot;Урна&quot;&lt;/span&gt;&lt;span style=&quot;background-color: initial;&quot;&gt;&amp;nbsp;или&lt;/span&gt;&amp;nbsp;&quot;-&quot;&lt;span style=&quot;background-color: initial;&quot;&gt;&amp;nbsp;возле Товара, соответственно, удаляет каждый Товар из Корзины&lt;/span&gt;&amp;nbsp;или уменьшает его количество до 0&lt;span style=&quot;background-color: initial;&quot;&gt;;&lt;br&gt;&lt;/span&gt;&lt;div&gt;&lt;b style=&quot;background-color: initial;&quot;&gt;&lt;i&gt;&lt;u&gt;11a&lt;/u&gt;&lt;/i&gt;&lt;/b&gt;. Система сообщает, что Корзина пуста и отображает кнопку &quot;Вернуться на главную&quot;&lt;b style=&quot;background-color: initial;&quot;&gt;&lt;i&gt;&amp;nbsp;&lt;font color=&quot;#8654cc&quot;&gt;(&lt;font style=&quot;text-decoration-line: underline;&quot;&gt;экран 2.c&lt;/font&gt;);&lt;/font&gt;&lt;/i&gt;&lt;/b&gt;&lt;/div&gt;&lt;div&gt;&lt;b style=&quot;background-color: initial;&quot;&gt;&lt;i&gt;&lt;u&gt;12a&lt;/u&gt;&lt;/i&gt;&lt;/b&gt;. Пользователь нажимает на одну из кнопок &quot;Вернуться на главную&quot; или &quot;Дом&quot;;&lt;/div&gt;&lt;div&gt;&lt;br&gt;&lt;/div&gt;&lt;div&gt;&lt;i&gt;&lt;b&gt;-- Переход к шагу 1 основного сценария&lt;/b&gt;&lt;/i&gt;&lt;br&gt;&lt;/div&gt;&lt;div&gt;&lt;br&gt;&lt;/div&gt;&lt;div&gt;&lt;span style=&quot;background-color: initial;&quot;&gt;&lt;b&gt;&lt;font size=&quot;1&quot; color=&quot;#8654cc&quot;&gt;&lt;span style=&quot;font-size: 14px;&quot;&gt;&lt;u&gt;Результат&lt;/u&gt;:&lt;/span&gt;&lt;/font&gt;&lt;/b&gt;&lt;/span&gt;&lt;b style=&quot;background-color: initial;&quot;&gt;&amp;nbsp;Корзина пуста, Пользователю предложено вернуться на главную страницу для наполнения Корзины.&lt;br&gt;&lt;/b&gt;&lt;/div&gt;" style="shape=partialRectangle;html=1;whiteSpace=wrap;connectable=0;strokeColor=inherit;overflow=hidden;fillColor=none;top=0;left=0;bottom=0;right=0;pointerEvents=1;align=left;spacingLeft=21;spacingRight=7;fontFamily=Comic Sans MS;" parent="5DFN9uElky3kn-lGwo1o-30" vertex="1">
          <mxGeometry x="160" width="656" height="160" as="geometry">
            <mxRectangle width="656" height="160" as="alternateBounds" />
          </mxGeometry>
        </mxCell>
        <mxCell id="3GdmSkPxTMsJN_K1McYo-1" style="shape=tableRow;horizontal=0;startSize=0;swimlaneHead=0;swimlaneBody=0;strokeColor=inherit;top=0;left=0;bottom=0;right=0;collapsible=0;dropTarget=0;fillColor=none;points=[[0,0.5],[1,0.5]];portConstraint=eastwest;fontFamily=Comic Sans MS;" parent="5DFN9uElky3kn-lGwo1o-1" vertex="1">
          <mxGeometry y="733" width="816" height="160" as="geometry" />
        </mxCell>
        <mxCell id="3GdmSkPxTMsJN_K1McYo-2" value="&lt;b&gt;Исключительный сценарий № 1&lt;/b&gt;" style="shape=partialRectangle;html=1;whiteSpace=wrap;connectable=0;strokeColor=inherit;overflow=hidden;fillColor=none;top=0;left=0;bottom=0;right=0;pointerEvents=1;fontFamily=Comic Sans MS;align=right;spacingRight=21;" parent="3GdmSkPxTMsJN_K1McYo-1" vertex="1">
          <mxGeometry width="160" height="160" as="geometry">
            <mxRectangle width="160" height="160" as="alternateBounds" />
          </mxGeometry>
        </mxCell>
        <mxCell id="3GdmSkPxTMsJN_K1McYo-3" value="&lt;div&gt;&lt;span style=&quot;background-color: initial;&quot;&gt;&lt;b&gt;&lt;i&gt;&lt;u&gt;3b&lt;/u&gt;&lt;/i&gt;&lt;/b&gt;.&amp;nbsp;&lt;/span&gt;&lt;span style=&quot;background-color: initial;&quot;&gt;Система проверяет наличие выбранного Товара и, в случае отсутствия добавленного количества, не увеличивает количество Товара в Корзине больше количества в наличии и отображает под кнопкой возле такого Товара&amp;nbsp;&lt;/span&gt;&lt;span style=&quot;background-color: initial;&quot;&gt;надпись красного цвета&lt;/span&gt;&lt;span style=&quot;background-color: initial;&quot;&gt;&amp;nbsp;&lt;/span&gt;&lt;span style=&quot;background-color: initial;&quot;&gt;&quot;Нет в наличии&quot; или &quot;В наличии X&quot;, где X - количество Товара в наличии&lt;/span&gt;&lt;span style=&quot;background-color: initial;&quot;&gt;&amp;nbsp;&lt;/span&gt;&lt;b style=&quot;background-color: initial;&quot;&gt;&lt;i&gt;&lt;font color=&quot;#8654cc&quot;&gt;(&lt;font style=&quot;text-decoration-line: underline;&quot;&gt;экран 1.d&lt;/font&gt;);&lt;/font&gt;&lt;/i&gt;&lt;/b&gt;&lt;br&gt;&lt;/div&gt;&lt;div&gt;&lt;span style=&quot;background-color: initial;&quot;&gt;&lt;br&gt;&lt;/span&gt;&lt;/div&gt;&lt;div&gt;&lt;i&gt;&lt;b&gt;-- Переход к шагу 4 основного сценария&lt;/b&gt;&lt;/i&gt;&lt;span style=&quot;background-color: initial;&quot;&gt;&lt;br&gt;&lt;/span&gt;&lt;/div&gt;&lt;div&gt;&lt;br&gt;&lt;/div&gt;&lt;div&gt;&lt;span style=&quot;background-color: initial;&quot;&gt;&lt;b&gt;&lt;font size=&quot;1&quot; color=&quot;#8654cc&quot;&gt;&lt;span style=&quot;font-size: 14px;&quot;&gt;&lt;u&gt;Результат&lt;/u&gt;:&lt;/span&gt;&lt;/font&gt;&lt;/b&gt;&lt;/span&gt;&lt;b style=&quot;background-color: initial;&quot;&gt;&amp;nbsp;Пользователь не может добавить Товара в Корзину больше, чем есть в наличии, и проинформирован об этом.&lt;/b&gt;&lt;/div&gt;" style="shape=partialRectangle;html=1;whiteSpace=wrap;connectable=0;strokeColor=inherit;overflow=hidden;fillColor=none;top=0;left=0;bottom=0;right=0;pointerEvents=1;align=left;spacingLeft=21;spacingRight=7;fontFamily=Comic Sans MS;" parent="3GdmSkPxTMsJN_K1McYo-1" vertex="1">
          <mxGeometry x="160" width="656" height="160" as="geometry">
            <mxRectangle width="656" height="160" as="alternateBounds" />
          </mxGeometry>
        </mxCell>
        <mxCell id="iYZjJl4IIF1E1Z53RNTq-1" style="shape=tableRow;horizontal=0;startSize=0;swimlaneHead=0;swimlaneBody=0;strokeColor=inherit;top=0;left=0;bottom=0;right=0;collapsible=0;dropTarget=0;fillColor=none;points=[[0,0.5],[1,0.5]];portConstraint=eastwest;fontFamily=Comic Sans MS;" vertex="1" parent="5DFN9uElky3kn-lGwo1o-1">
          <mxGeometry y="893" width="816" height="220" as="geometry" />
        </mxCell>
        <mxCell id="iYZjJl4IIF1E1Z53RNTq-2" value="&lt;b&gt;Исключительный сценарий&amp;nbsp;&lt;/b&gt;&lt;b&gt;№&amp;nbsp;&lt;/b&gt;&lt;b&gt;2&lt;/b&gt;" style="shape=partialRectangle;html=1;whiteSpace=wrap;connectable=0;strokeColor=inherit;overflow=hidden;fillColor=none;top=0;left=0;bottom=0;right=0;pointerEvents=1;fontFamily=Comic Sans MS;align=right;spacingRight=21;" vertex="1" parent="iYZjJl4IIF1E1Z53RNTq-1">
          <mxGeometry width="160" height="220" as="geometry">
            <mxRectangle width="160" height="220" as="alternateBounds" />
          </mxGeometry>
        </mxCell>
        <mxCell id="iYZjJl4IIF1E1Z53RNTq-3" value="&lt;div&gt;&lt;span style=&quot;background-color: initial;&quot;&gt;&lt;b&gt;&lt;u&gt;&lt;i&gt;7c&lt;/i&gt;&lt;/u&gt;&lt;/b&gt;.&amp;nbsp;&lt;/span&gt;&lt;span style=&quot;background-color: initial;&quot;&gt;Система проверяет наличие выбранных Товаров и, в случае отсутствия одного из них, меняет&amp;nbsp;&lt;/span&gt;&lt;span style=&quot;background-color: initial;&quot;&gt;цвет&amp;nbsp;&lt;/span&gt;&lt;span style=&quot;background-color: initial;&quot;&gt;кнопки&lt;/span&gt;&lt;span style=&quot;background-color: initial;&quot;&gt;&amp;nbsp;&lt;/span&gt;&lt;span style=&quot;background-color: initial;&quot;&gt;возле отсутствующего Товара на серый&lt;/span&gt;&lt;span style=&quot;background-color: initial;&quot;&gt;&amp;nbsp;и отображает&lt;/span&gt;&lt;span style=&quot;background-color: initial;&quot;&gt;&amp;nbsp;под кнопкой&lt;/span&gt;&lt;span style=&quot;background-color: initial;&quot;&gt;&amp;nbsp;надпись красного цвета&lt;/span&gt;&lt;span style=&quot;background-color: initial;&quot;&gt;&amp;nbsp;&lt;/span&gt;&lt;span style=&quot;background-color: initial;&quot;&gt;&quot;Нет в наличии&quot; или &quot;В наличии X&quot;, где X - количество Товара в наличии&lt;/span&gt;&lt;span style=&quot;background-color: initial;&quot;&gt;, а также кнопка &quot;Оформить заказ&quot; становится неактивной до удаления Пользователем отсутствующего Товара из Корзины или уменьшения количества такого Товара до количества X&amp;nbsp;&lt;/span&gt;&lt;b style=&quot;background-color: initial;&quot;&gt;&lt;i&gt;&lt;font color=&quot;#8654cc&quot;&gt;(&lt;font style=&quot;text-decoration-line: underline;&quot;&gt;экран 2.d&lt;/font&gt;);&lt;/font&gt;&lt;/i&gt;&lt;/b&gt;&lt;br&gt;&lt;/div&gt;&lt;div&gt;&lt;b style=&quot;background-color: initial;&quot;&gt;&lt;u&gt;&lt;i&gt;8c&lt;/i&gt;&lt;/u&gt;&lt;/b&gt;. Пользователь удаляет из Корзины отсутствующий Товар или уменьшает его количество до количества X и, при желании, может вернуться на домашнюю страницу через кнопку &quot;Дом&quot;, чтобы выбрать другие Товары;&lt;/div&gt;&lt;div&gt;&lt;br&gt;&lt;/div&gt;&lt;div&gt;&lt;i&gt;&lt;b&gt;-- Переход к шагу 7 основного сценария&lt;/b&gt;&lt;/i&gt;&lt;br&gt;&lt;/div&gt;&lt;div&gt;&lt;br&gt;&lt;/div&gt;&lt;div&gt;&lt;span style=&quot;background-color: initial;&quot;&gt;&lt;b&gt;&lt;font size=&quot;1&quot; color=&quot;#8654cc&quot;&gt;&lt;span style=&quot;font-size: 14px;&quot;&gt;&lt;u&gt;Результат&lt;/u&gt;:&lt;/span&gt;&lt;/font&gt;&lt;/b&gt;&lt;/span&gt;&lt;b style=&quot;background-color: initial;&quot;&gt;&amp;nbsp;&lt;/b&gt;&lt;b style=&quot;background-color: initial;&quot;&gt;Пользователь, находясь в Корзине, не может нажать кнопку &quot;Оформить заказ&quot; до тех пор, пока в Корзине находится отсутствующий Товар.&lt;/b&gt;&lt;/div&gt;" style="shape=partialRectangle;html=1;whiteSpace=wrap;connectable=0;strokeColor=inherit;overflow=hidden;fillColor=none;top=0;left=0;bottom=0;right=0;pointerEvents=1;align=left;spacingLeft=21;spacingRight=7;fontFamily=Comic Sans MS;" vertex="1" parent="iYZjJl4IIF1E1Z53RNTq-1">
          <mxGeometry x="160" width="656" height="220" as="geometry">
            <mxRectangle width="656" height="220" as="alternateBounds" />
          </mxGeometry>
        </mxCell>
      </root>
    </mxGraphModel>
  </diagram>
</mxfile>
